<?xml version="1.0" encoding="UTF-8"?>
<!-- Created with Inkscape (http://www.inkscape.org/) -->
<svg width="611.35" height="378.42" version="1.1" viewBox="0 0 611.35 378.42" xmlns="http://www.w3.org/2000/svg">
 <g transform="translate(-114.88 -230.24)">
  <g fill-rule="evenodd">
   <path transform="matrix(.13333 0 0 -.13333 0 840)" d="m2230.4 3039.5-430.86-1212.4 172.29-8.66 522.73 98.45 88.04-112.67 21.04-40.59 836.93-3.13-4.79 854.77-310.5 95.19-301.44-111.05-140.51-151.86-452.93 591.97" fill="#c49418"/>
   <path transform="matrix(.13333 0 0 -.13333 0 840)" d="m3976.8 1940-1.62 230.21 163.27-1.94c13.09-15.19 6.23-85.88 6.28-109.33 0.09-37.47 0.52-75.33 0.09-112.77zm-640.37-120.83v169.1c-34.46-25.56-102.01-49.21-151.84-53.21-177.06-14.2-324.97 98.16-325.66 291.41-0.96 265.26 350.23 373.11 523.78 198.52v171c-257.94 151.78-579.65 21.76-660.82-219.84-72.73-216.49 28.7-416.22 146.8-504.25 124.48-92.79 313.05-112.52 467.74-52.73zm-1157 369.77 176.58-0.56 65.84-150.38-304 0.63zm88.5 377.01c-13.02-12.72-298-719.56-296.16-748.21l610.77-13.57c-5.6 25.82-27.56 73.76-38.24 99.39l-196.99 473.41c-25.49 60.93-57.07 128.84-79.38 188.98zm2065.9-405.47 2.41-209.59-76.85-0.33c-17.84-7.27-61.24-8.3-83.5-4.09l-0.84 221.69c24.91 5.46 53.81 0.45 79.49-0.5 19.67-0.71 63.93 3.36 79.29-7.18zm-157.31 257.81 158.02-12.57 1.79-210.43-140.99 3.43c-23.41 0.87-19.12 2.24-18.73 27.36 0.99 63.69 0.54 128.46-0.09 192.21zm-201.44 19.66 169.2-15.71 0.14-221.5-169.34 5.73zm200.4 447.16c11.52-9.48 114.09-176.54 136.31-211.69 24.72-39.12 24.47-30.97 24.55-86.62l-0.43-146.37-158.91 15.19-0.8 357.4zm-201.48-319.26c-0.04 67.98-8.94 66.31 17.94 99.14 17.29 21.11 139.51 179.91 151.91 188.47l-0.84-394.85-168.61 15.85zm-1710.8 381.68c0.57-0.71 1.49-1.76 2.08-2.56 0.58-0.8 1.3-1.81 1.85-2.66l247.06-565.81c16.5-37.03 241.64-551.69 249.04-581.29l-1356.9-0.69c-84.42-0.81-169.05-7.37-249.42-9.49 73.1-13.23 497.54-23.81 584.02-25.89 1052.6-25.36 1536.8-33.09 2526.2-11.84l671.24 21.54c47.89 2.58 151.02 4.24 191.51 15.71-72.53 14.74-549.53 12.69-707.65 12.55-170.24-0.13-486.52-5.23-647.17 0.94 17.66-3.9 276.44 7.21 320.25 8.94l649.59 23.52c85.39 3.23 297.54 2.15 375.4 17.55-25.79 0.45-73.59 7.02-106.25 8.67l-411.66 9.82-0.68 548.16 40.56-2.81c-7.95 25.82-40.62 73.58-55.98 100.02-46.63 80.33-372.69 630.65-388.74 666.46-15.56-9.99-61.18-79.77-73.36-96.84-104.73-146.93-244-337.47-339.42-481.87-18.5-28-21.79-20.89-59.57-23.27-24.81-1.57-49.69-3.8-74.35-5.46-82.32-5.56-101.15-16.95-142.7 11.38-88.91 60.62-208.62 132.68-305.43 189.03-82.68 48.13-62.21 47.22-102.22 22.3l-405.06-249.47-352.36 503.07c-21.14 30.36-38.75 55.27-58.64 83.86l-58.42 81.31c-15.17-15.83-105.03-163.15-125.23-194.71l-306.87-489.25c-12.48-19.81-53.32-80.94-60.07-102.66l33.4-4.79 0.15-26.91c0.3-112.36 4.41-404-0.01-525.86l-562.51-23.23c2.21-0.6 11.22-1.27 14.52-1.44 9.22-0.46 18.21-0.77 27.54-1.41 18.91-1.3 37.46-2.52 56.4-3.32 37.1-1.58 74.31-3.04 111.37-4.75 59.48-2.75 330.46-13.33 384.81-7.03l463.73 1120.5"/>
   <path transform="matrix(.13333 0 0 -.13333 0 840)" d="m3465.6 3464.2 0.34-56.86c48.94 3.75 121.34 32.12 164.22 31.84 35.87-0.23 111.23-42.31 154.39-45.32l-0.08 55.01c-17.91 7.8-135.02 48.42-150.1 48.33-36.99-0.24-125.81-26.63-168.77-33zm30.24-75.8 0.39-188.49-153.65-32.16c5.73-81.4 64.64-264.97 78.33-356.61-2.33 2.73-3.1 3.4-6.13 8.17l-144 296.46c-11.58 21.92-34.25 21.28-80.85 32.62-30.85 7.52-60.25 14.84-90.79 22.48-87.65 21.92-885.32 221.52-919.86 221.76-8.02-24.01-52.74-89.7-69.09-116.06l-213.37-348.08c-29.9-49.92-262.2-424.23-279.2-467.27 13.12-7.03 37.63-9.65 55.21-10.18 17.35 19.95 374.24 618.1 404.92 669.59l102.38 165.8c5.49 8.72 11.98 18.62 17.69 28.38 7.56 12.94 9.97 19.97 21.38 27.13 8.8-20.94 98.73-145.2 118.76-173.94 32.91-47.22 341.8-494.32 362.67-516.54l376.05 228.81c16.64 10.6 37.34 25.41 54.7 34.42l418.7-252.89c20-12.46 19.69-9.73 46.44-7.67l160.86 11.82 279.2 398.7c24.33 34.85 154.34 225.98 171.95 241.2 22.09-30.9 41.81-71.62 61.14-104.76l185.2-326c39.87-72.85 82.81-143.22 122.96-216.39l125.26-215.29 57.04 3.7c0.07 14.64-48.6 92.76-59.65 111.94l-458.42 802.27-485.68-103.1-1.64 115.9-108.99 33.66 0.86-174.86-27.75-4.9 0.13 179.92-123.15-19.54"/>
   <path transform="matrix(.13333 0 0 -.13333 0 840)" d="m4511.5 3488.1-121.71 99.72c5.27 49.41 8.88 89.33 10.49 119.79 1.74 30.47 2.42 66.66 2.25 108.66l-12.6 10.32-78.89-96.28c-4.38-5.34-7.07-10.66-8.07-16.09-1.09-5.37 0.24-11.69 3.83-18.84 1.82-3.54 5.33-8.45 10.36-14.61 4.97-6.24 9.47-11.33 13.45-15.36l-14.27-17.41-169.5 138.88 14.27 17.41c4.72-3.1 10.95-7.19 18.74-12.16 7.79-4.99 13.64-8.12 17.69-9.4 7.59-2.26 13.85-2.41 18.84-0.37 4.91 2.09 9.72 5.94 14.35 11.59l183.54 224.02c4.45 5.42 7.23 10.54 8.57 15.44 1.26 4.97-0.14 11.35-4.21 19.15-3.19 5.93-7.52 12.16-12.89 18.85-5.5 6.68-9.8 11.87-13.04 15.54l14.26 17.41 178.28-146.08c39.86-32.65 64.97-63.69 75.46-93.08 10.5-29.41 5.35-56.71-15.36-81.98-18.2-22.22-39.32-34.91-63.14-37.98-23.82-3.06-51.93 2.35-84.3 16.11-0.6-21.45-1.22-46.34-1.84-74.67s-1.09-57.55-1.27-87.52c-0.1-9.62 0.35-21.85 1.48-36.82 1.06-14.91 3.83-25.85 8.45-32.83 2.56-3.88 6.16-8.37 10.87-13.37 4.64-5.08 8.09-8.66 10.17-10.63l-14.26-17.41" fill="#c49418"/>
   <path transform="matrix(.13333 0 0 -.13333 0 840)" d="m3154.1 4573.2c1266.1 0 2292.6-968.21 2292.6-2162.6 0-65.37-3.25-130-9.27-193.89h-618.27c8.23 63.55 12.54 128.24 12.54 193.89 0 873.95-751.06 1582.4-1677.6 1582.4s-1677.6-708.49-1677.6-1582.4c0-65.65 4.32-130.34 12.55-193.89h-618.27c-6.02 63.89-9.27 128.52-9.27 193.89 0 1194.4 1026.4 2162.6 2292.5 2162.6" fill="#c49418"/>
  </g>
  <path transform="matrix(.13333 0 0 -.13333 0 840)" d="m1396.5 2759.9-16.78-208.74-21.04 1.69c0.06 9.93-0.76 21.61-2.47 35.12-1.79 13.52-4.76 20.44-8.91 20.78-1.48 0.12-3.06 0.06-4.94-0.07-1.86-0.04-4.32-0.67-7.55-1.62l-82.57-26.52-10.68-132.89c7.23-3.64 15.63-7.66 25.3-12.15 9.67-4.5 18.27-8.44 25.9-11.75 9.88-4.23 17.01-6.84 21.48-7.85 4.56-1.02 7.68-1.55 9.52-1.7 5.72-0.46 11.05 3.48 15.82 11.92 4.76 8.44 8.89 22.87 12.38 43.12l21.04-1.69-12.64-157.25-21.04 1.69c0.1 5.93-0.28 12.75-1.24 20.35-0.88 7.59-2.53 13.67-4.95 18.23-3.74 7.73-8.5 14.34-14.46 20.02-5.86 5.67-12.99 10.51-21.39 14.62-48.99 24.93-98.06 49.96-147.31 75.01-49.16 25.13-103.41 52.8-162.64 83.11l4.344 53.98c89.757 28.26 160.74 50.42 212.82 66.29 52.09 15.97 95.35 29.58 129.61 40.95 5.64 1.96 10.76 4.52 15.49 7.76 4.72 3.24 9.28 8.08 13.78 14.4 3.35 4.75 5.96 10.48 7.97 17.01 1.91 6.53 3.33 12.55 4.13 17.87zm-171.16-188.06-144.85-44.74 135.91-66.56zm-32.5 636.7c22.43 16.91 48.12 27.84 77.05 32.76 29.03 4.89 60.91 1.08 95.84-11.51 30.57-11.02 55.11-26.75 73.36-47.1 18.37-20.3 31.2-43.13 38.41-68.46 7.12-25.59 9.45-52.71 7.15-81.2-2.3-28.5-8.52-56.96-18.75-85.36l-65.79-182.56-19.86 7.16c1.81 5.55 3.73 12.54 5.81 21.03 2.2 8.56 3.1 14.34 2.88 17.57-0.33 7-2.27 12.52-5.66 16.5-3.51 3.93-8.29 7.02-14.48 9.26l-256.76 92.52c-5.84 2.11-11.47 2.86-16.96 2.38-5.4-0.52-10.8-3.49-15.97-8.82-5.19-5.41-9.68-11.57-13.3-18.33-3.56-6.88-6.23-12.12-7.99-15.91l-19.86 7.15 69.36 192.49c7.41 20.55 17.97 41.65 31.72 63.16 13.7 21.64 31.68 40.64 53.8 57.27zm240.99-145.59c-10.66 13.29-24.66 25.22-42.09 35.84-17.44 10.61-38.43 20.34-62.99 29.19-24.05 8.66-46.82 14.02-68.44 16-21.62 1.99-41.22 0.59-58.7-4.23-17.6-4.88-32.83-13.27-45.83-25.31-12.97-11.96-22.83-27.3-29.57-46.03-2.17-6.01-4.53-12.83-7-20.5-2.47-7.68-4.25-13.43-5.43-17.24l275.23-99.18c6.19-2.23 11.87-3.39 17.17-3.43 5.18-0.1 10.36 1.18 15.35 3.82 4.99 2.63 9.53 6.5 13.49 11.47 4.07 5.03 7.7 12.09 11.02 21.32 6.94 19.25 9.33 37.08 7.14 53.42-2.14 16.42-8.66 31.37-19.35 44.86zm87.78 688.87c-3.1-5.09-5.71-10.29-7.59-15.59-1.93-5.38-3.25-11.33-3.99-18.05-1.01-8.95-0.75-16.65 0.86-23.17 1.61-6.5 4.83-14.11 9.61-22.87 6.62-11.87 16.54-29.09 29.67-51.59 13.19-22.42 28.16-48.03 44.89-76.68 15.12-25.72 31.77-53.73 49.96-84.16 18.25-30.36 35.7-59.43 52.39-87.24l-32.6-43.71c-64.84 16.83-130.77 33.9-197.78 51.2-67.02 17.3-113.66 29.11-140.06 35.52-9.76 2.09-17.69 2.92-23.72 2.57-5.96-0.41-13.53-2.5-22.5-6.32-6.46-2.92-11.6-5.79-15.46-8.8-3.94-2.95-8.61-7.2-14.15-12.77l-16.92 12.62 124.55 166.97 16.47-12.29c-9.69-17.02-15.55-29.05-17.62-36.17-2.02-7.04-1.45-11.85 1.74-14.23 1.63-1.22 3.56-2.2 5.67-3.08 2.17-0.82 5.23-1.82 8.99-3.13 16.25-4.85 43.36-12.01 81.38-21.43s95.68-24.25 172.8-44.58c-25.24 41.57-46.66 76.5-64.34 104.82s-33.3 53.37-46.97 75c-6.56 10.55-12.98 20.07-19.29 28.48-6.25 8.36-11.44 14.08-15.52 17.12-4.61 3.43-11.03 3.03-19.13-1.33-8.15-4.42-19.7-15.1-34.67-32.23l-17.36 12.95 93.32 125.12zm618.2 56.52-162.25-132.42-13.34 16.36c7.21 6.84 15.06 15.52 23.63 26.1 8.52 10.65 11.46 17.59 8.82 20.82-0.93 1.15-2.08 2.25-3.46 3.51-1.31 1.32-3.48 2.65-6.4 4.33l-76.3 41.22-103.29-84.29c2.38-7.74 5.3-16.59 8.75-26.68s6.56-19.02 9.46-26.82c3.78-10.05 6.83-17.01 9.2-20.93 2.41-4 4.19-6.61 5.36-8.04 3.63-4.45 10.16-5.57 19.55-3.17s22.67 9.42 39.7 20.92l13.34-16.36-122.22-99.73-13.35 16.35c4.35 4.03 9.01 9.02 13.82 14.98 4.87 5.89 8.12 11.28 9.73 16.19 2.99 8.05 4.46 16.06 4.43 24.29 0.05 8.15-1.4 16.66-4.24 25.57-15.93 52.6-31.84 105.34-47.87 158.22-15.9 52.87-33.48 111.17-52.63 174.9l41.97 34.24c82.53-45.21 147.66-81.09 195.17-107.68 47.58-26.53 87.36-48.33 119.28-65.18 5.32-2.71 10.71-4.63 16.32-5.79 5.6-1.17 12.25-1.11 19.94 0.01 5.74 0.87 11.68 2.97 17.78 6.03 6.04 3.14 11.36 6.29 15.76 9.39zm-254.2-6.7-132.57 73.57 46.07-144.16zm498.59 533.05c-4.36-2.7-10.44-6.72-18.25-12.08-7.84-5.27-14.02-12.11-18.45-20.48-3.9-7.29-4.58-16.85-2.04-28.86 2.59-11.9 8.82-28.2 18.73-49.02l118.47-248.75-44.22-21.06-343.04 166.3 77.7-163.15c9.64-20.23 18.3-34.97 25.99-44.23 7.77-9.22 15.82-14.92 24.15-16.9 6.14-1.49 14.67-1.32 25.64 0.41 10.93 1.82 19.49 3.65 25.65 5.35l9.08-19.06-149.96-71.41-9.07 19.05c6.12 3.53 12.83 8.17 20.19 14.03 7.32 5.74 12.86 11.97 16.5 18.53 4.09 7.78 5.05 16.96 2.9 27.73-2.2 10.64-8.67 27.25-19.46 49.89l-78.5 164.84c-3.9 8.19-8.86 15.37-14.83 21.44-5.97 6.08-12.89 10.48-20.71 13.11-8.34 2.89-16.85 4.18-25.81 3.81-8.9-0.24-18.45-1.72-28.65-4.42l-9.08 19.06 131.07 62.42 300.49-145.65-62.85 131.98c-10 20.98-18.86 35.93-26.48 44.82-7.65 8.96-15.7 14.46-24.11 16.4-6.6 1.58-15.14 1.41-25.81-0.29-10.55-1.75-18.95-3.49-25.19-5.23l-8.84 18.55 149.95 71.42zm381.43-289.92c-27.51-5.93-54.26-7.07-80.27-3.31-25.91 3.79-49.61 12.21-71.11 25.38-21.15 12.86-39.34 30.44-54.68 52.79-15.34 22.36-26.23 48.23-32.56 77.55-6.31 29.23-7.08 57.38-2.23 84.48 4.79 26.98 14.42 51.69 28.86 73.85 14.24 21.83 32.88 40.34 56.1 55.58 23.21 15.33 49.22 26.07 78.08 32.29 20.82 4.5 40.37 6.06 58.68 4.62 18.29-1.36 34.01-4.02 47.24-7.8l13.32 18.13 22.81 4.92 31.82-136.91-23.35-5.04c-22.29 39.23-44.88 66.66-67.69 82.38-22.79 15.63-47.45 20.64-74.15 14.87-33.21-7.17-55.3-27.28-66.25-60.33-10.96-33.05-10.76-76.1 0.69-129.13 6.46-29.96 14.98-54.92 25.43-74.83 10.46-19.91 21.91-35.24 34.21-46.13 13.13-11.28 27.39-18.52 42.69-21.85 15.29-3.24 31.36-3.08 48.37 0.59 24.7 5.34 45.23 16.87 61.6 34.51 16.45 17.66 29.7 41.83 39.64 72.58l25.79-8.92c-4.24-17.21-9.92-33.02-16.96-47.33-7.03-14.39-15.97-27.4-26.81-39.03-11.85-12.68-25.59-23.61-41.32-32.78-15.65-9.16-34.97-16.17-57.95-21.13zm523.82 342.4-21.11-0.58c-5.66 14.49-15.05 29.14-28.32 43.79-13.17 14.74-26.18 23.19-38.85 25.62-5.49 1.06-13.09 1.69-22.73 1.7-9.63 0.02-17.68-0.11-23.98-0.28l-55.8-1.5 4.02-148.82 39.61 1.07c10 0.27 19.03 1.72 27.11 4.25 8.08 2.63 15.36 7.36 21.84 14.21 4.06 4.28 8.11 11.79 12.09 22.37 3.88 10.66 6.41 19.9 7.49 27.71l21.1 0.57 4.34-160.48-21.1-0.57c-1.32 7.56-4.35 17.02-9.01 28.37-4.75 11.36-9.23 19.2-13.32 23.36-6.1 6.41-13.35 10.65-21.56 12.84-8.21 2.28-17.59 3.23-28.32 2.94l-39.61-1.07 3-111.06c0.31-11.66 1.39-20.8 3.34-27.51 1.85-6.8 5.22-11.9 10.04-15.37 4.63-3.31 10.89-5.45 18.79-6.26 7.89-0.9 18.64-1.16 32.25-0.8 6.29 0.18 13.88 0.47 22.75 0.9 8.89 0.43 16.64 1.19 23.28 2.3 7.57 1.04 14.66 2.61 21.27 4.64 6.53 1.94 11.36 4.76 14.5 8.27 8.47 9.12 17.91 22.99 28.24 41.51 10.43 18.53 17.19 32.33 20.37 41.49l19.99 0.54-4.07-120.14-361.4-9.77-0.57 21.1c5.08 0.51 11.91 1.44 20.68 2.7 8.67 1.34 14.74 2.8 18.4 4.38 6.77 3.05 11.3 6.78 13.59 11.3 2.19 4.5 3.24 10.18 3.05 17.03l-7.33 271.53c-0.18 6.57-1.34 11.91-3.4 16.11-2.16 4.2-7.07 7.87-14.75 11.09-4.78 2.09-11.5 3.86-20.06 5.47-8.56 1.53-15.07 2.56-19.44 3l-0.57 21.1 341.5 9.23zm481.21-27.9c19.67-20.06 33.83-44.11 42.45-72.17 8.61-28.14 8.95-60.25 0.99-96.51-6.97-31.74-19.39-58.11-37.21-78.84-17.75-20.84-38.72-36.53-62.92-46.95-24.45-10.37-51.04-16.19-79.59-17.6-28.56-1.4-57.58 1.08-87.06 7.55l-189.53 41.61 4.52 20.62c5.74-1.07 12.91-2.07 21.61-3.04 8.77-1.07 14.61-1.21 17.78-0.59 6.91 1.24 12.13 3.88 15.64 7.75 3.43 3.99 5.89 9.14 7.3 15.56l58.52 266.58c1.33 6.06 1.35 11.74 0.16 17.12-1.21 5.29-4.85 10.26-10.81 14.69-6.03 4.46-12.72 8.1-19.89 10.82-7.29 2.64-12.83 4.61-16.82 5.87l4.53 20.61 199.84-43.87c21.34-4.68 43.62-12.42 66.74-23.27 23.22-10.79 44.4-26.15 63.75-45.94zm-113.19-257.8c11.8 12.29 21.83 27.72 30.1 46.38 8.26 18.66 15.19 40.74 20.79 66.24 5.48 24.95 7.84 48.23 7.01 69.92-0.83 21.7-4.75 40.95-11.79 57.66-7.12 16.83-17.4 30.84-31.03 42.17-13.54 11.31-30.02 19.1-49.47 23.37-6.24 1.37-13.31 2.83-21.24 4.29-7.92 1.45-13.85 2.47-17.79 3.14l-62.73-285.74c-1.41-6.43-1.83-12.21-1.18-17.47 0.58-5.15 2.52-10.13 5.78-14.73 3.25-4.6 7.67-8.61 13.12-11.88 5.51-3.4 12.98-6.08 22.56-8.18 19.99-4.39 37.98-4.45 53.9-0.17 16 4.26 29.98 12.65 41.97 25zm451.15-280.2c-24.22 14.35-44.61 31.69-61.13 52.13-16.44 20.39-28.09 42.68-34.91 66.95-6.78 23.81-8.18 49.06-4.23 75.88 3.94 26.83 13.54 53.21 28.82 79.02 15.24 25.73 33.81 46.91 55.78 63.48 21.85 16.54 45.71 28.12 71.37 34.56 25.27 6.33 51.52 7.24 78.92 2.64 27.45-4.53 53.82-14.33 79.23-29.38 18.32-10.85 33.73-22.99 46.17-36.49 12.49-13.43 22.22-26.08 29.36-37.83l22.09 4.24 20.07-11.89-69.7-122.05-20.56 12.17c10.31 43.93 12.38 79.4 6.34 106.43-6.09 26.96-20.79 47.39-44.29 61.3-29.23 17.32-59.1 17.58-89.6 0.78s-59.61-48.52-87.26-95.19c-15.62-26.37-26.34-50.47-32.2-72.18-5.86-21.7-7.88-40.74-6.26-57.08 1.97-17.2 7.5-32.21 16.46-45.05 9.02-12.76 20.91-23.57 35.88-32.43 21.75-12.89 44.65-18.37 68.64-16.55 24.08 1.77 50.23 10.49 78.42 26.29l12.85-24.07c-14.8-9.74-29.71-17.48-44.61-23.19-14.94-5.78-30.34-9.25-46.19-10.41-17.32-1.26-34.82 0.07-52.6 4.04-17.69 3.91-36.63 11.9-56.86 23.88zm489.83-401.88-104.87 103.82c9.26 45.68 16.15 82.64 20.33 110.94 4.31 28.3 8.14 62.03 11.68 101.26l-10.85 10.75-82.15-82.95c-4.56-4.61-7.54-9.34-8.96-14.32-1.48-4.92-0.8-10.94 1.92-17.93 1.4-3.46 4.23-8.36 8.39-14.56 4.09-6.26 7.85-11.41 11.21-15.52l-14.86-15-146.05 144.61 14.85 15c4.15-3.32 9.6-7.68 16.44-13.01 6.83-5.34 12.02-8.78 15.69-10.33 6.89-2.78 12.72-3.48 17.56-2.01 4.77 1.53 9.6 4.69 14.42 9.56l191.12 193.02c4.62 4.67 7.68 9.21 9.35 13.66 1.62 4.53 0.87 10.62-2.24 18.26-2.46 5.82-5.95 12.02-10.37 18.73-4.55 6.73-8.11 11.95-10.82 15.66l14.85 15 153.62-152.1c34.34-34.01 55.05-65.19 62.26-93.57 7.21-28.37 0-53.42-21.56-75.19-18.95-19.14-39.79-29.14-62.31-29.9-22.51-0.76-48.28 6.76-77.29 22.46-2.45-19.97-5.22-43.16-8.3-69.56s-6.08-53.64-8.89-81.62c-0.94-8.96-1.6-20.43-1.86-34.5-0.32-14.01 1.3-24.48 5-31.4 2.05-3.85 5.02-8.35 8.97-13.44 3.89-5.15 6.79-8.81 8.56-10.83zm70.36 333.17c18.11 18.28 26.2 36.72 24.27 55.3-1.86 18.65-12.36 37.39-31.31 56.15l-15.33 15.18-113.73-114.87 14.74-14.59c19.01-18.82 38.57-28.42 58.86-28.84 20.3-0.43 41.13 10.09 62.5 31.67zm145.47-694.39-108.46 179.14 18.05 10.93c5.77-8.08 13.26-17.08 22.55-27.04 9.35-9.92 15.82-13.8 19.38-11.64 1.27 0.77 2.52 1.74 3.96 2.94 1.49 1.11 3.12 3.08 5.18 5.73l51.47 69.8-69.05 114.04c-7.99-1.27-17.16-2.92-27.63-4.93-10.48-2.01-19.76-3.85-27.88-5.63-10.49-2.34-17.8-4.39-22.01-6.18-4.3-1.84-7.14-3.24-8.72-4.19-4.9-2.98-6.93-9.29-5.87-18.92 1.08-9.64 6.17-23.76 15.18-42.22l-18.05-10.93-81.71 134.94 18.05 10.94c3.39-4.88 7.69-10.18 12.91-15.78 5.16-5.65 10.04-9.62 14.68-11.9 7.55-4.08 15.28-6.65 23.43-7.78 8.07-1.17 16.69-0.93 25.91 0.64 54.32 8.43 108.76 16.82 163.36 25.31 54.57 8.36 114.75 17.64 180.52 27.7l28.06-46.33c-56.29-75.42-100.91-134.9-133.87-178.24-32.92-43.41-60.05-79.75-81.19-109-3.43-4.89-6.09-9.96-8.02-15.36-1.93-5.39-2.81-11.98-2.76-19.74 0.05-5.81 1.3-11.98 3.48-18.45 2.27-6.42 4.64-12.13 7.1-16.92zm28.86 252.65 91.35 121-149.18-25.49zm339.78-509.28-6.09 20.21c12.83 9.38 25.41 22.84 37.81 40.41 12.28 17.62 17.51 32.35 15.66 44.26-0.84 5.36-2.42 12.52-4.48 21.28-2.08 8.85-4.22 16.91-6.41 24.18l-17.29 57.35-144.67-43.61 11.02-36.52c3.12-10.37 7-19.06 11.69-25.96 4.58-6.84 10.8-12.41 18.68-16.42 5.56-3.06 14.09-5.04 25.42-6.07 11.31-0.94 20.74-0.8 28.28 0.5l6.09-20.21-154.23-46.49-6.09 20.21c7.58 3.06 16.27 8.58 26.02 16.64 9.78 7.98 15.93 14.19 18.58 18.56 4.06 6.74 6.21 14.35 6.61 22.98 0.33 8.51-1.17 18.31-4.46 29.21l-11 36.52-122.68-36.98c-6.3-1.9-11.27-4.65-14.98-8.38s-5.98-9.35-6.73-16.82c-0.42-4.39-0.23-10.13 0.47-17.27 0.7-7.13 1.76-14.17 3.05-21.03l-20.21-6.09-60.12 199.44 20.22 6.09c2.05-4.89 4.76-11.32 8.28-19.45 3.48-8.04 6.37-13.45 8.81-16.39 4.26-5.49 8.94-8.81 14.03-9.99 5.07-1.08 10.93-0.66 17.67 1.37l260.07 78.39c5.94 1.79 10.76 4.4 14.53 7.95 3.78 3.46 6.06 9.08 6.95 16.7 0.66 5.52 0.57 12.55-0.06 21.06-0.72 8.49-1.41 14.95-2.13 19.27l20.2 6.1 99.88-331.35zm36.55-443.7-1.69 21.04c15.89 6.84 32.62 17.19 50.27 31.04 17.66 13.77 26.81 26.02 27.45 36.57 0.28 5.77 0.26 12.92 0.14 21.46-0.12 8.44-0.42 15.76-0.92 21.94l-1.01 12.64-300.76-24.05c-6.46-0.52-12.08-2.18-16.88-4.88-4.8-2.71-8.31-7.64-10.63-14.69-1.33-4.2-2.48-10.79-3.44-19.59-1.05-8.91-1.66-16.4-1.92-22.54l-21.04-1.69-17.05 213.18 21.04 1.69c0.97-5.13 2.3-12.45 4.06-21.79 1.77-9.33 3.48-15.6 5.15-18.9 3.51-6.78 7.76-11.17 12.74-13.1 5.08-1.91 10.9-2.66 17.63-2.12l303.43 24.27-1 12.65c-0.5 6.19-1.36 13.45-2.59 21.8-1.23 8.45-2.35 15.51-3.55 21.17-2.31 10.31-13.28 20.95-32.9 31.73-19.63 10.88-37.79 18.43-54.57 22.67l-1.68 21.04 109.63 8.76 29.72-371.54-109.63-8.76"/>
 </g>
</svg>
